<svg xmlns="http://www.w3.org/2000/svg" viewBox="0 0 297.3 72.7">
<path fill="currentColor" color="#e52028" d="M297.3 34.2c-.5.1-.4-.2-.3-.4v-.3s0-.1-.1-.1c-.3-.2-.4-.4-.2-.7.2-.3.1-.5-.3-.5-.1 0-.3 0-.2-.2l.1-.1c.1 0 .1-.1.2-.1h.2c.4 0 .4-.1.2-.3-.2-.1-.1-.3-.2-.4s-.2-.1-.3-.2c0 0-.1 0-.1-.1h-.1c-.1 0-.2 0-.2.1v.1c0 .1.1.2.2.2s.2 0 .1.1l-.1.1c-.1 0-.1 0-.2-.1 0-.1-.1-.2-.2-.3-.2-.1-.3-.3-.1-.5.3-.2.2-.5 0-.7-.2.1-.4.2-.6.1s-.3-.2-.3-.3c-.1-.5 0-1 0-1.4.2-.1.5-.1.5-.3.1-.2.3-.2.3 0 .1.1.2.2.3.1 0 0 .1 0 .1-.1.1-.1.1-.2.2-.3h.1s.1 0 .1-.1l.1-.1v-.1c0-.2 0-.4.1-.6.1-.1 0-.2-.2-.2-.1 0-.2.1-.3 0 0-.1 0-.1.1-.1v-.5s0-.1-.1-.1c0 0-.1-.1 0-.1.3-.5.1-1 .1-1.6-.1-.2-.3-.3-.4-.4-.2-.1-.1-.4-.5-.4-.1 0-.2.1-.2.2-.1.1-.3.1-.4 0-.1-.2-.4-.2-.6-.3h-.8c-.1 0-.1 0-.2-.1-.1 0-.2-.1-.2-.1 0-.1.1-.1.2-.1l.1-.1c.1-.3.2-.3.5-.1.1.2.3.1.4 0s.2-.1.4-.1c.4.1.8-.1 1.2 0 .2-.1.1-.3.2-.4.2-.1.2-.3.2-.5v-.8c0-.2 0-.5-.2-.7 0 0 0-.1-.1-.1-.2-.4-.1-.8.2-.9.1-.2.1-.4-.1-.5-.1-.1-.1-.1-.1-.2 0-.3-.2-.4-.5-.4h-.3l-.1-.1c.3-.3 0-.3-.3-.3s-.3-.2-.3-.4.1-.2.3-.2c.1 0 .1 0 .2-.1l.1-.1v-.1c0-.1 0-.3.3-.1.1.1.3.2.4.3.3-.2.2-.5.4-.7 0-.1 0-.2-.1-.3-.1 0-.1.1-.1.1v.1s-.1 0-.1.1h-.1c-.3-.1-.1-.3-.2-.5-.2 0-.2.3-.5.1-.1-.1 0-.1 0-.2s.1-.1.1-.2v-.1c.2-.3.1.1.3 0h.2V15c.1-.1 0-.2.1-.2.2-.1.4 0 .4.2 0 .1.1.3.3.3.1 0 .2.1.2-.1V15c0-.2.1-.3.3-.3.1 0 .2 0 .2-.1v-.7c0-.1 0-.1-.1-.1 0-.1-.1-.1-.2-.1h-.5s-.1-.1-.2-.1h-.8s-.1 0-.1-.1v-.2s0-.1-.1-.1v-.3l.1-.1v-.1c.1 0 .2 0 .3-.1 0 0 0-.1.1-.1v.1c.1.1.2.2.4.1.1-.1.2-.1.2-.1h.3c.1 0 .1-.1.1-.1v-.8h.1c0-.2.2-.4-.1-.5 0-.1.1-.2 0-.2-.2-.2 0-.2.1-.2.1-.2-.2-.2-.2-.3.2 0 .3.2.5.1v-.1c-.1-.1-.1-.2 0-.2v-.7c0-.1 0-.2-.1-.2-.2-.1-.2-.3-.3-.4 0 0-.1 0-.1-.1-.1-.1-.1-.2-.3-.1-.2.1-.3 0-.4-.1s0-.2.1-.2.2-.1.2-.2V8c-.3-.2-.6-.1-.7.2s-.1.7-.1 1.1c-.2 0-.2.1-.4.2-.2-.2.1-.3 0-.5 0-.2.2-.5 0-.7-.1-.1-.1-.2-.2-.2 0-.1 0-.3-.1-.4-.1-.2-.1-.2.2-.3h.1v-.2h.1v-.3c0-.1-.1-.1-.1-.2-.1-.1-.3-.1-.2-.3.2-.2 0-.5.1-.7 0-.2.1-.5-.4-.5-.1 0-.2 0-.2-.2 0-.1 0-.2.2-.2s.3-.1.3-.3c0-.3-.1-.7 0-1v-.3c0-.1-.1-.1-.1-.1V3l.1-.1.1-.1v-.1c0-.1-.1-.2.1-.3h.1c.1.1 0 .2-.1.3v.1s0 .1.1.1l.1.1c.1.1.1.3.1.4 0 .1.1.1.1.2.1.1 0 .3.1.4.2.2.3 0 .4-.1.1 0 .1-.1.1-.1v-.4c-.1-.2-.4-.3-.2-.6v-.1c0-.1.1-.2.2-.3 0 0 0-.1.1-.1.3-.2.3-.2 0-.5l-.2-.2c-.1-.1-.2-.2-.1-.3.2-.2 0-.3-.2-.3-.5-.1-1-.3-1.6-.1h-.5c-.1 0-.3-.1-.4 0-.2.1-.4 0-.6 0h-1.6c-.3 0-.6.1-.8.1-.7-.1-1.5 0-2.2-.1s-1.5 0-2.2 0-1.5-.1-2.2 0c-.8.1-1.4-.3-2.1-.2-.3 0-.7.1-1 0-.8-.1-1.6-.1-2.5-.1-.4 0-.8.1-1.2 0-.9-.1-1.7-.1-2.6 0h-.3c-.2-.1-.5-.1-.7-.1h-4.4c-.6 0-1.2-.1-1.8 0h-3.5c-.2 0-.4.1-.6.1-.9-.1-1.8-.2-2.7 0h-.4c-.4-.1-.8-.1-1.2 0h-.2c-.6-.1-1.2-.1-1.8-.1-.3.1-.6.2-.9 0-.1 0-.2-.1-.4 0-.6.1-1.3 0-1.9 0h-.5c-.2.1-.4 0-.6 0-.5-.1-1-.1-1.5 0-.2.1-.3.1-.5 0-.5-.1-1-.1-1.5 0-.2.1-.4.1-.7 0-.2-.1-.4-.1-.6-.1-.4 0-.8.1-1.2.1-.6-.1-1.2.1-1.8-.1h-.5c-.2.1-.4 0-.7 0-.4-.1-.8-.1-1.1 0-.1 0-.2.1-.4 0-.3-.1-.5-.1-.8-.1H233c-.1 0-.2 0-.4.1h-.3c-.6-.2-1.2-.1-1.9-.1-.2 0-.3 0-.4.1-.1.1-.2.1-.3 0-.2-.1-.5-.1-.8-.1-.9 0-1.7-.1-2.6 0-.7.1-1.4.1-2.2 0-.5-.1-1-.1-1.4.1h-.2c-.2-.1-.4-.1-.7-.1-.5 0-1 .1-1.5 0-.7 0-1.4-.1-2.1 0-.3 0-.6 0-1 .1h-.3c-.4-.3-.7-.2-1.2-.1h-.2c-.6-.1-1.2 0-1.7-.1h-.4c-.4.1-.9.1-1.3 0-.5 0-1.1 0-1.6-.1h-.9c-.3-.1-.5-.1-.8 0h-9.3c-.5-.1-.9-.1-1.3 0h-.6c-.1 0-.3.1-.4 0-.4-.1-.8-.1-1.2 0-.2 0-.4-.1-.6-.1-.6-.1-1.1 0-1.7 0h-29.3c-.5 0-.9 0-1.4.1h-1.3c-.2 0-.4-.1-.6-.1h-25.2c-.2 0-.4.1-.6.1H134c-.5 0-.9 0-1.4-.1h-15.5c-.2 0-.5-.1-.7 0h-5.1c-1.9-.1-3.7 0-5.6 0h-2.4c-.6 0-1.1-.1-1.7 0-.2 0-.4 0-.6.1-.4-.1-.8-.1-1.2 0h-2.3c-.2-.1-.5-.1-.8 0h-3.5c-.2-.1-.4 0-.5 0h-5.4c-.3 0-.5-.1-.8 0-.5 0-1.1.1-1.6.1-.4.1-.9.1-1.3 0-.1 0-.3-.1-.4 0-.6.1-1.2 0-1.7.1h-.2c-.4-.1-.8-.2-1.2.1h-.3c-.3-.1-.6-.1-1-.1-.7-.1-1.4-.1-2.1 0-.5 0-1-.1-1.5 0-.2 0-.5 0-.7.1h-.2c-.5-.2-1-.1-1.4-.1-.7.1-1.4.1-2.2 0-.8-.1-1.7 0-2.6 0-.3 0-.5 0-.8.1-.1.1-.2 0-.3 0-.1-.1-.2-.1-.4-.1-.6 0-1.2-.1-1.9.1h-.3c-.1 0-.2-.1-.4-.1h-7.7c-.3 0-.5 0-.8.1h-.4c-.4-.1-.8-.1-1.1 0-.2 0-.4.1-.7 0-.1 0-.3-.1-.5 0-.6.2-1.2 0-1.8.1-.4 0-.8-.1-1.2-.1-.2 0-.4 0-.6.1-.2.1-.4.1-.7 0-.5-.1-1-.1-1.5 0-.2.1-.3.1-.5 0-.5-.1-1-.1-1.5 0h-1.1c-.6 0-1.3.1-1.9 0h-.4c-.3.1-.6.1-.9 0-.6 0-1.2 0-1.8.1h-.2c-.4-.1-.8-.1-1.2 0h-.4c-.9-.2-1.8-.2-2.7 0-.2 0-.4-.1-.6-.1H31c-.2.1-.4.1-.7 0-.6-.1-1.2 0-1.8 0h-4.4c-.2 0-.5 0-.7.1h-.3c-.9-.1-1.7-.1-2.6 0h-1.2c-.8 0-1.6-.1-2.5.1-.3.1-.7 0-1 0-.7-.1-1.4.3-2.1.2-.7-.1-1.4 0-2.2 0H9.3C8.6 1 7.8.8 7.1 1c.2.3-.1.1-.4.2-.5.1-1 0-1.6 0-.2.1-.4.1-.6 0-.1-.1-.3 0-.4 0-.2 0-.3.1-.5 0-.6-.1-1.1 0-1.6.1-.1.2-.3.3-.1.5.1.1 0 .2-.1.3-.1 0-.1.1-.1.2-.3.2-.3.2 0 .5l.1.1s.1.1.1.2v.1c.2.3-.1.4-.2.6v.4h.2c.1.1.2.2.4.1.1-.1 0-.3.1-.4 0 0 .1-.1.1-.2.1-.1 0-.3.1-.4l.1-.1s0-.1.1-.1V3c-.3 0-.3-.1-.3-.3h.1c.2.1.1.2.1.3v.1s0 .1.1.1l.1.1v.1c-.1 0-.1.1-.1.1v.3c.1.3.1.7 0 1 0 .1.1.2.3.3.2 0 .2.1.2.2s-.1.1-.2.2c-.4 0-.4.3-.4.5s-.1.5.1.7c.1.1-.2.2-.2.3-.1 0-.1.1-.1.1v.3h.1v.2h.1c.2.2.2.2.1.3-.1.2-.1.3-.2.5 0 .1-.1.2-.2.2-.2.2 0 .5 0 .7-.1.2.2.3 0 .5-.1 0-.2-.2-.4-.2.1-.3.1-.7 0-1-.1-.3-.4-.4-.7-.2v.3c0 .1.1.2.2.2.1.1.3.1.1.2 0 .1-.1.3-.3.2s-.2 0-.3.1l-.1.1c-.1.1-.1.3-.3.4-.1 0-.1.1-.1.2v.7c.1.1.1.2 0 .2v.1c.2.1.3-.1.5-.1 0 .1-.3.1-.2.3.1.1.3.1.1.2-.1.1 0 .1 0 .2-.3.1-.2.3-.1.5h.1v.8l.1.1h.3c.1 0 .2.1.2.1.2.1.3 0 .4-.1V13c.1 0 0 .1.1.1.1.1.1.1.3.1v.1s0 .1.1.1v.3s0 .1-.1.1v.2s0 .1-.1.1h-.8c-.1 0-.1 0-.2.1H.7c-.1 0-.1 0-.2.1-.1 0-.1.1-.1.1v.7c0 .1.1.1.2.1.2 0 .3.1.3.3v.2c0 .2.1.1.2.1.2 0 .3-.2.3-.3 0-.2.1-.3.4-.2.1.1 0 .2.1.2v.4h.2c.1.1.1-.3.3 0v.1c0 .1.1.1.1.2v.2c-.3.2-.3-.1-.5-.1-.1 0 .1.3-.3.3h-.1s-.1 0-.1-.1v-.1c-.1 0 0-.1-.1-.1-.1.1-.1.2-.1.3.2.2.1.5.4.7.1-.1.2-.2.4-.3.2-.2.2 0 .3.1v.1s0 .1.1.1c0 .1.1.1.2.1.2-.1.3 0 .3.2s0 .4-.3.4-.6 0-.3.3l-.1.1H2c-.3 0-.5.1-.5.4 0 .1 0 .1-.1.2-.2.2-.2.3-.1.5.3.1.4.5.2.9 0 0 0 .1-.1.1-.1.2-.2.5-.2.7v.8c0 .2 0 .4.2.5s.1.3.2.4c.4-.1.8.1 1.2 0 .1 0 .3 0 .4.1s.3.1.4 0c.3-.2.4-.1.5.1l.1.1c.1 0 .2 0 .2.1s-.1.1-.2.1-.1.1-.2.1h-.8c-.2.1-.5.1-.6.3 0 .1-.3.1-.4 0 .1-.2.1-.2-.1-.3-.3 0-.3.3-.5.4l-.4.4c0 .5-.2 1.1.1 1.6v.1s0 .1-.1.1v.5l.1.1c-.1.1-.2 0-.3 0-.2 0-.3.1-.2.2.1.2.1.4.1.6v.1s0 .1.1.1c0 0 .1 0 .1.1h.1c.2.1.2.2.2.3l.1.1c.2 0 .3 0 .3-.1.1-.2.2-.2.3 0 0 .2.3.2.5.3.1.5.1 1 0 1.4 0 .1-.2.2-.3.3-.2.2-.4 0-.6-.1-.2.2-.3.5 0 .7.2.2.2.3-.1.5-.1.1-.2.2-.2.3 0 .1-.1.1-.2.1s-.1 0-.1-.1.1-.1.1-.1c.1 0 .2-.1.2-.2v-.1c0-.1-.1-.1-.2-.1h-.1s-.1 0-.1.1c-.1.1-.2.1-.3.2-.1.1 0 .3-.2.4-.2.2-.1.3.2.3h.2c.1 0 .2.1.2.1l.1.1c.1.1 0 .1-.2.2-.4.1-.5.3-.3.5.2.3.1.5-.2.7l-.1.1v.3c0 .2.2.5-.3.4-.1 0-.1.1-.1.1v.1s.1 0 .1.1H1c.7-.1.9 0 1.2-.1.1-.1.2 0 .3.1.2.1.1.3 0 .4v.2c.1.1.2.2.4.1.1-.1.1-.1.1-.2-.1-.1-.1-.2 0-.3s.2-.3.4-.4c.2-.1.1-.3.2-.5 0-.1 0-.1.1-.2.1 0 .1 0 .2.1 0 .5.1 1 .1 1.5 0 .1-.1.2-.2.3v.1c0 .1.1.3.1.4v.1l-.1.1v.1c.1 0 .1.1.2.1h.1c.2.1.2.3.1.4-.2.2-.2.4.2.5.1 0 .1.1.1.1v.1c.2.3.1.6 0 1v.1c0 .2-.1.3-.4.4-.1 0-.2 0-.2.1v.1c.1.1.1.2.1.3v.1l-.1.1v.1c-.1.3.1.6-.1.9-.1 0-.1.1-.2.1v.1c0 .1.1.2.1.3-.1 0-.2-.1-.3-.1h-.1c-.1 0-.1.1-.2.1-.1.2-.4.3-.4.5v.1l.1.1.1.1.1.1h.1c.2 0 .4-.1.5.1.1.1-.2.2-.2.3 0 0 0 .1-.1.1-.1-.1-.1-.3-.3-.3-.2 0-.1.3-.1.4 0 .1 0 .2.1.2-.1 0-.1 0 0 .1.2.2.3.2.6.1s.4-.1.4.2c0 .2.1.4.1.5v.1c.1.4 0 .8 0 1.1v.1c0 .1 0 .1-.1.2-.1 0-.1.1-.2.2v.3c0 .1.1.1.1.2v.1l-.1.1h-.2c-.1-.1 0-.2 0-.2 0-.1 0-.1-.1-.2h-.1c-.2.1-.2.2-.3.4 0 .2-.1.3-.4.3-.2 0-.2.1-.2.2s0 .1-.1.2c-.1 0-.1 0-.2.1 0 0-.1.1-.1.2v.5l.1.1.1.1c.1.1 0 .2.2.3.2 0 .1-.2.3-.3s.2 0 .2.1c0 0 0 .1-.1.1-.5.2-.5.3-.1.5.1 0 .1.1.1.1-.1.2-.1.4-.1.7 0 .1-.1.1-.1.1-.1 0-.1.1-.1.1-.1.2 0 .5 0 .7 0 .1.1.2.2.3.3.2.1.4 0 .5-.3.3-.3.6-.1 1 .1.2.1.4 0 .6.2-.1.2.1.4.4.2.1.2.3 0 .5-.1.1-.1.2-.1.3v.1c.2.3.3.7 0 1-.1.2.1.3.1.5 0 .4 0 .8-.4 1.2-.2.2.1.4.2.5v1.1s0 .1.1.1h.2c.1 0 .1-.1.1-.2v-.8c0-.2 0-.4.1-.6h.3s.1 0 .1.1v.1c0 .1-.1.1-.1.2-.1.2-.1.4 0 .7.1.2.1.4 0 .7 0 .2 0 .3.1.4 0 .1.1.2.1.2v.2s0 .1.1.1c0 .1 0 .1-.1.2l-.1.1c-.1.1-.2.2-.1.3 0 .1 0 .2-.1.2-.2.1-.2.3-.2.4 0 .3.3.6.2 1-.1.3.1.6-.2.9-.1.1 0 .2.1.3.2.1.3.3.6.3.3.1.3.3.2.5-.1.2 0 .4.1.6.1.1.2.2.3.2 0 .1.1.1.1.1.1 0 .2.1.2.2s-.2.1-.3.1h-.1c0-.2 0-.4-.2-.5-.1-.1-.3-.2-.4-.4-.1.2-.1.2-.3.2-.1 0-.2.1-.2.2s-.1.2-.2.3l-.1.1c-.3.1-.3.4-.2.6.1.2.2.2.4.2.3 0 .4 0 .4.2 0 .1 0 .2.1.2.1.1.2.2 0 .3-.1.1-.2.1-.3.2-.2.2-.1.3.2.5.3.1.6 0 .8.1 0 0 .1 0 .1.1.2.2.4.2.4.4-.3 0-.6 0-.6.3s-.2.6.2.9c.1.1.2.1.2.2v.1s0 .1.1.1l.1.1s.1 0 .1.1c.3 0 .3-.1.3-.3h.2c.1 0 .1 0 .2.1 0 .3-.1.6.4.8-.3.1-.4 0-.5-.1-.1-.4-.2-.5-.4-.5-.1 0-.1.1-.2.1v.3c0 .1 0 .2.1.3l.1.1v.1l-.3.6c-.1.1-.1.2.2.3h.1c.1-.1.2-.2.3-.1v.1c-.1.2-.1.4.1.6h.1c.2.1.3.1.5.1.1 0 .1-.1.2-.1h.2c.1 0 .1-.1.2-.1 0 0 .1 0 .1.1s.1.1.2 0h.1c.1 0 .2 0 .3-.1.2.1.5.1.7.3.2.1.4.1.5 0 .3-.1.6 0 .9 0 .4 0 .8 0 1.1-.1.1 0 .2-.1.4 0 .5.2 1.1.1 1.7.1.2 0 .4 0 .6-.1.2-.1.4-.1.7 0 .1.1.3.1.4.1h8.1c.4-.2.9 0 1.3 0h8.2c.1 0 .3 0 .4-.1.1-.1.3-.1.4 0 .2.1.3.1.5 0V72c.2 0 .3-.1.5 0 .1.1.3.1.5 0 .3-.1.5 0 .8 0 1 .2 2 .1 3 0 .3 0 .6-.1.8 0 .6.1 1.2.1 1.8.1.5 0 1 .1 1.5-.1h.2c.3.1.6.1.9 0 .2-.1.4.1.6.1h3.4c.2 0 .4 0 .6-.1.1-.1.2 0 .3 0 .2.1.4.1.5-.1.1-.1.2-.1.4 0 .4.2.9.2 1.4.2h.9s.1 0 .1-.1h.9v.1l.1.1h.5c.4.2.9.2 1.4.1.9 0 1.8.1 2.7-.1.3 0 .6.1.9.1.1 0 .1 0 .2-.1l.1-.1c.2-.1.4-.1.6-.1h.5c.3-.1.4.1.4.2 0 0 .1 0 .1.1.4 0 .9.1 1.3-.1.3-.1.6-.1.9 0 .3.1.7.1 1 .1.1 0 .3 0 .3-.1.2-.3.4-.2.7-.1.4.2.9.2 1.3.1h.1c.1 0 .3-.1.4 0 .3.1.5.1.8 0 .1-.1.3 0 .4 0 .4.1.7.1 1-.1.1-.1.3-.1.4 0 .3.2.6.2.9 0 .1-.1.3-.1.4 0 .2.1.4.2.6.1.3-.1.5-.2.8 0 .2.1.4.1.6 0 .1-.1.2-.2.3-.1h.1c.2 0 .3.1.5.1h.1c.2-.2.4 0 .6 0 .4 0 .8.1 1.1-.3.1-.1.2-.1.4 0 .3.3.6.3 1 0 .2-.1.3-.2.5 0l.2.2h.2s.1 0 .1-.1h.3c.1 0 .2.1.2 0h.1s.1 0 .1-.1c.2-.1.4-.2.7-.1h.1c.1 0 .1.1.1.1v.1l.1.1h.7c.2.1.4 0 .6-.1.2-.2.4-.1.6-.1.3.1.6.3 1 .1.1-.1.3.1.4.1h.1s.1 0 .1-.1c.1-.1.3-.1.4-.1s.1 0 .2.1c0 0 .1 0 .1.1 0 0 .1 0 .1.1h.9l.1.1.1.1c.5.2 1.2.1 1.6-.1.1-.1.3-.1.4 0 .3.2.6.3 1 .2.2-.1.4.2.7.1h.1s.1 0 .1-.1c.3-.2.4-.2.7 0 .2.2.5.3.7 0 .1-.1.2 0 .3 0 .1.1.2.1.3 0 .1-.1.2-.1.3-.1.2 0 .3.1.5.1h.3c.2.1.4 0 .6-.1l.1-.1c.2 0 .4-.1.6-.1h.2c.2 0 .3 0 .5.1.4.2.9.3 1.4.2h.9c.1 0 .3.1.4.1h.5c.2 0 .5-.1.7 0h1.6c.4 0 .7-.1 1.1 0 .3.1.6 0 1 0h1.5c.4 0 .8 0 1.2-.1h.2c.7 0 1.5.1 2.2 0 .3 0 .6 0 .9-.1.2 0 .4-.1.7 0 .3.1.6.1.9.1h.2c.1 0 .2 0 .2-.1h.2s.1 0 .1.1c.2.1.4.1.7.1h22.4c.4 0 .7-.1 1 0h.1c.8.1 1.5 0 2.3 0h2.6c.2 0 .4.1.5.1h18.4c.2 0 .4 0 .5-.1h.4c.7.1 1.5 0 2.2 0h2.4c.3-.1.7-.1 1 0 .2.1.5 0 .8 0h21.6c.2 0 .5 0 .7-.1l.1-.1h.2c.1 0 .2 0 .2.1h.2c.3 0 .6 0 .9-.1h.7c.3.1.6.2.9.1h2.4c.4.1.8.1 1.2.1h1.5c.3 0 .7.1 1 0 .4-.1.7 0 1.1 0h2.8c.1 0 .3 0 .4-.1h.9c.5.1 1-.1 1.4-.2.2-.1.4-.1.5-.1h.2c.2 0 .4.1.6.1l.1.1c.1.1.3.1.6.1h.3c.2 0 .3 0 .5-.1.1 0 .2.1.3.1.1.1.2.1.3 0s.2-.2.3 0c.2.2.5.2.7 0 .3-.3.3-.3.7 0 0 0 .1 0 .1.1h.1c.2.1.5-.1.7-.1.4.1.7 0 1-.2.1-.1.2-.1.4 0 .3.3 1.1.3 1.6.1 0 0 .1 0 .1-.1l.1-.1h.9s.1 0 .1-.1c0 0 .1 0 .1-.1.1 0 .1 0 .2-.1.2 0 .3 0 .4.1 0 0 .1 0 .1.1h.1c.2 0 .3-.2.4-.1.4.3.7.1 1-.1.2-.1.4-.1.6.1.1.1.3.2.6.1h.7s.1 0 .1-.1v-.1l.1-.1h.1c.3-.1.5 0 .7.1 0 0 .1 0 .1.1h.6l.1.1h.2c.1 0 .2-.1.2-.2.2-.2.3-.1.5 0 .4.3.6.3 1 0 .1-.1.3-.2.4 0 .3.3.7.3 1.1.3.2 0 .4-.2.6 0h.1c.2 0 .4-.1.5-.1h.1c.2-.1.2 0 .3.1.2.1.4.1.6 0 .3-.2.6-.1.8 0 .2 0 .4 0 .6-.1.1-.1.2-.1.4 0 .3.2.6.2.9 0 .1-.1.3-.1.4 0 .3.2.7.2 1 .1.1 0 .3-.1.4 0 .3.1.5.1.8 0h.5c.5.1.9.1 1.3-.1.2-.1.5-.2.7.1 0 .1.2.1.3.1.3 0 .7 0 1-.1s.6-.1.9 0c.4.1.9.1 1.3.1 0 0 .1 0 .1-.1 0-.2.1-.3.4-.2h.5c.2 0 .5 0 .6.1l.1.1c.1 0 .1 0 .2.1.3.1.6-.1.9-.1.9.2 1.8.1 2.7.1.5 0 .9 0 1.4-.1h.5s.1 0 .1-.1V72h.9l.1.1h.9c.5 0 1 .1 1.4-.2.1-.1.2-.1.4 0 .1.1.3.1.5.1.1-.1.2-.1.3 0 .2.1.4.1.6.1h3.4c.2 0 .4-.1.6-.1.3.1.6.1.9 0 .1 0 .2-.1.2 0 .5.2 1 .1 1.5.1.6 0 1.2 0 1.8-.1.3-.1.6 0 .8 0 1 .1 2 .2 3 0 .3 0 .5-.2.8 0 .1.1.3 0 .5 0 .2-.1.3-.1.5 0v.1c.2.1.3.1.5 0 .1-.1.3-.1.4 0s.3.1.4.1h8.2c.4 0 .9-.2 1.3 0h8.1c.2 0 .3 0 .4-.1.2-.1.5-.1.7 0s.4.1.6.1c.6 0 1.2.1 1.7-.1h.4c.4.1.7.1 1.1.1.3 0 .6-.1.9 0 .1.1.3 0 .5 0 .2-.1.5-.2.7-.3.1 0 .2 0 .3.1h.3c0-.1.1-.1.1-.1.1 0 .1 0 .2.1h.2c.1 0 .1.1.2.1.2.1.4.1.5-.1h.1c.2-.2.3-.4.1-.6v-.1c.1-.1.2 0 .3.1h.1c.2 0 .2-.2.2-.3l-.3-.6v-.1c.1 0 .1 0 .1-.1.1-.1.1-.2.1-.3v-.3c0-.1-.1-.1-.2-.1-.2 0-.3.1-.4.2s-.2.2-.5.1c.5-.2.4-.5.4-.8 0-.1.1-.1.2-.1h.2c0 .1.1.3.3.3 0 0 .1 0 .1-.1l.1-.1.1-.1v-.1c0-.1.1-.2.2-.2.5-.2.2-.6.2-.9s-.3-.3-.6-.3l.3-.3s.1 0 .1-.1c.2-.1.5 0 .8-.1s.4-.3.2-.5c-.1-.1-.2-.1-.3-.2-.1-.1-.1-.2 0-.3.1-.1.2-.1.1-.2-.1-.3.1-.3.4-.2.2 0 .4 0 .4-.2.1-.3.1-.5-.2-.7l-.1-.1c-.2 0-.2-.2-.2-.3 0-.1 0-.2-.2-.2-.1 0-.2 0-.3.1l-.4.4c-.2.2-.3.3-.2.5h-.1c-.1 0-.3 0-.3-.1-.1-.1.1-.1.2-.2.1 0 .1-.1.1-.1.1 0 .2-.1.3-.2.2-.2.2-.4.1-.6-.1-.2-.1-.4.2-.5.3-.1.4-.2.6-.3.1-.1.2-.2.1-.3-.3-.3-.1-.6-.2-.9-.1-.3.2-.6.2-1 .1-.2 0-.3-.2-.4-.1-.1-.1-.1-.1-.2s0-.2-.1-.3l-.1-.1c-.1 0-.1-.1-.1-.2 0 0 0-.1.1-.1v-.2c0-.1.1-.2.1-.2.1-.1.1-.3.1-.4-.1-.2-.1-.5 0-.7s.1-.5 0-.7c0-.1-.1-.1-.1-.2v-.1s.1 0 .1-.1h.3c.1.2 0 .4.1.6v.8c0 .1 0 .1.1.2h.2s.1 0 .1-.1v-1.1c.2-.2.4-.3.2-.5-.4-.4-.4-.8-.4-1.2 0-.2.2-.3.1-.5-.3-.3-.2-.7 0-1v-.1c0-.1 0-.2-.1-.3-.2-.2-.2-.3 0-.5.3-.2.2-.5.1-.8-.1-.2-.1-.4 0-.6.1-.3.2-.7-.1-1-.1-.1-.3-.4 0-.5.2 0 .2-.1.2-.3v-.7l-.1-.1c-.1 0-.1 0-.1-.1.1-.2 0-.4-.1-.7 0-.1 0-.1.1-.1.4-.3.4-.3-.1-.5l-.1-.1c0-.1.1-.2.2-.1s.1.2.3.3c.1-.1.1-.2.2-.3l.1-.1.1-.1V47c0-.1 0-.1-.1-.2-.1 0-.1 0-.2-.1-.1 0-.1-.1-.1-.2s0-.3-.2-.2c-.3 0-.3-.1-.4-.3-.1-.1-.1-.3-.3-.4h-.1c-.1.1-.1.1-.1.2s.1.2 0 .2h-.2c-.1 0-.1 0-.1-.1v-.1c0-.1.1-.1.1-.2v-.3c0-.1-.1-.1-.2-.2s-.1-.1-.1-.2v-1.3c0-.2.1-.4.1-.5 0-.3.1-.3.4-.2.2.1.4.1.6-.1l.2-.2c.1-.1.1-.1.1-.2s.1-.4-.1-.4-.2.2-.3.3c0 0-.1 0-.1-.1s-.3-.2-.2-.3c.1-.1.3-.1.5-.1h.1s.1 0 .1-.1l.1-.1.1-.1v-.1c0-.2-.3-.3-.4-.5-.1 0-.1-.1-.2-.1h-.1c-.1 0-.1.1-.3.1 0-.1.1-.2.1-.3v-.1c-.1 0-.1-.1-.2-.1-.3-.3-.1-.6-.1-.9v-.1l-.1-.1v-.1c-.1-.1 0-.2.1-.3v-.1c0-.1-.1-.1-.2-.1-.3 0-.4-.2-.4-.4v-.1c-.1-.3-.2-.6 0-1v-.1s0-.1.1-.1c.3-.1.3-.3.2-.5-.1-.1-.1-.3.1-.4h.1c.1 0 .1-.1.2-.1v-.1c0-.1 0-.1-.1-.1v-.1c-.1-.1.1-.3.1-.4v-.1c-.1-.1-.2-.2-.2-.3 0-.5 0-1 .1-1.5 0 0 .1-.1.2-.1s.1.1.1.2c0 .2-.1.4.2.5.2.1.3.3.4.4.1.1.1.2 0 .3 0 .1 0 .2.1.2.2 0 .3-.1.4-.1v-.2c-.1-.1-.2-.3 0-.4.1-.1.2-.1.3-.1.3.1.5 0 .7 0h.9s.1 0 .1-.1v-.1c2.1.4 2.1.3 2 .3zm-.7-19.3c.1 0 .1-.1.2 0l.1.1s0 .1.1.1c-.3-.1-.3-.1-.4-.2zm-.6-4.1c0-.1 0-.1 0 0 .1-.1.1-.1.1-.2s.1-.3.3-.3c.2.1.1.2 0 .4s-.3.5-.2.8c.1.2 0 .4-.1.6-.1.1-.1 0-.1-.1-.1-.5.2-.9 0-1.2zM1.9 11.9s0 .2 0 0c-.2-.1-.3-.3-.2-.5.1-.3-.1-.5-.2-.8-.1-.1-.2-.3 0-.4.2-.1.2.1.3.3 0 .1 0 .1.1.1-.2.5 0 .9 0 1.3zM1 15c-.1 0-.1 0 0 0v-.1l.1-.1c.1-.1.1 0 .2 0h.1c-.2.2-.3.2-.4.2zm4.3 51.4s-.1 0 0 0c-.3 0-.5.1-.7-.1.2.1.3 0 .3-.1s0-.1.2-.1c.1 0 .2.1.3.2.1 0 0 .1-.1.1zm287.6-.2c.1.1.2.2.4.2-.1.1-.4.1-.6.2l-.1-.1c-.1 0-.2-.1-.1-.2s.2-.2.3-.2c.1-.1.1 0 .1.1zM2.6 3.1s.1 0 0 0z"></path></svg>